[b]Quatermas and the Pit[/b] (1967) HAMMER

[b]PLOT[/b]: Workers excavating at an underground station in London uncover the skeletal remains of ancient apes with large skulls. Further digging reveals what is at first believed to be an unexploded German bomb from World War II. Missile expert Colonel Breen is brought in to investigate, accompanied by Professor Bernard Quartermass. When the interior of the "missile" is exposed, a dead locust-like creature that resembles the devil is found. It is determined by Quartermass that these "locusts" are evil Martians who altered the brains of our simian ancestors to eventually lay claim to the Earth. When Quartermass's suspicion that the missile can reactivate the dormant evil in humans is confirmed, all hell breaks loose.

[b]IMDB[/b]:[url]http://www.imdb.com/title/tt0062168/[/url]
[b]WIKI[/b]:[url]http://en.wikipedia.org/wiki/Quatermass_and_the_Pit_%28film%29
[/url]





Format                           : AVI
Format/Info                      : Audio Video Interleave
File size                        : 700 MiB
Duration                         : 1h 33mn
Overall bit rate                 : 1 046 Kbps
Writing application              : VirtualDubMod 1.5.4.1 (build 2178/release)
Writing library                  : VirtualDubMod build 2178/release

Video
ID                               : 0
Format                           : MPEG-4 Visual
Format profile                   : Advanced Simple@L5
Format settings, BVOP            : Yes
Format settings, QPel            : No
Format settings, GMC             : No warppoints
Format settings, Matrix          : Custom
Codec ID                         : XVID
Codec ID/Hint                    : XviD
Duration                         : 1h 33mn
Bit rate                         : 911 Kbps
Width                            : 672 pixels
Height                           : 416 pixels
Display aspect ratio             : 1.615
Frame rate                       : 25.000 fps
Resolution                       : 8 bits
Colorimetry                      : 4:2:0
Scan type                        : Progressive
Bits/(Pixel*Frame)               : 0.130
Stream size                      : 609 MiB (87%)
Writing library                  : XviD 1.2.1 (UTC 2008-12-04)

Audio
ID                               : 1
Format                           : MPEG Audio
Format version                   : Version 1
Format profile                   : Layer 3
Mode                             : Joint stereo
Format_Settings_ModeExtension    : MS Stereo
Codec ID                         : 55
Codec ID/Hint                    : MP3
Duration                         : 1h 33mn
Bit rate mode                    : Constant
Bit rate                         : 128 Kbps
Channel(s)                       : 2 channels
Sampling rate                    : 48.0 KHz
Stream size                      : 85.7 MiB (12%)
Alignment                        : Aligned on interleaves
Interleave, duration             : 80 ms (2.00 video frames)
Interleave, preload duration     : 504 ms
Writing library                  : LAME3.98r
Encoding settings                : -m j -V 4 -q 2 -lowpass 17 -b 128
Language                         : English

[u][i][b]Please don't expect to get the movie in a few minutes, I only have limited bandwidth. Just hang in there, you'll get it in the end.[/b][/i][/u]

[color=Red][b]REMEMBER, LEAVE A COMMENT! I took the time and effort to do this for you, please take the time to comment THX![/b] [/color]  :) 